<svg width="40" height="58" viewBox="0 0 40 58" fill="none" xmlns="http://www.w3.org/2000/svg">
<path d="M29.727 28.9744C32.3657 26.3258 34 22.6702 34 18.629C34 10.5465 27.4663 4 19.4072 4H0V33.258H18.6036C21.7088 33.258 24.2215 35.7803 24.2215 38.8898C24.2215 40.4462 23.595 41.8524 22.577 42.873C21.559 43.8867 20.1562 44.5215 18.6036 44.5215H9.19287V54H19.4072C23.4384 54 27.0849 52.3651 29.727 49.7164C32.3657 47.0746 34 43.4157 34 39.3778C34 35.34 32.3555 31.6538 29.6964 29.0017C29.7066 28.9949 29.7168 28.9846 29.727 28.9744ZM22.1446 21.6633C21.2185 22.5917 19.9417 23.1651 18.5321 23.1651H9.19287V12.9255H18.5321C21.3513 12.9255 23.6393 15.2158 23.6393 18.0453C23.6393 19.4584 23.0673 20.7383 22.1446 21.6633Z" fill="white"/>
</svg>
