<svg width="176" height="28" viewBox="0 0 176 28" fill="none" xmlns="http://www.w3.org/2000/svg">
<path d="M18.0215 13.3164H18.0039C20.623 14.5996 21.9238 16.5859 21.9238 19.293C21.9238 21.5605 21.1328 23.3184 19.5684 24.584C18.0039 25.8496 15.8418 26.4824 13.0996 26.4824H0.144531V1.27539H12.4492C15.0156 1.27539 17.0898 1.9082 18.6719 3.17383C20.2539 4.43945 21.0449 6.0918 21.0449 8.14844C21.0449 10.4512 20.043 12.1738 18.0215 13.3164ZM12.4492 6.4082L5.98047 6.44336V11.4883H12.4492C13.2402 11.4883 13.8906 11.2422 14.4004 10.7324C14.9102 10.2227 15.1738 9.60742 15.1738 8.88672C15.1738 8.16602 14.9102 7.56836 14.4004 7.09375C13.8906 6.61914 13.2402 6.39062 12.4492 6.4082ZM13.0996 21.3848C13.9961 21.3848 14.6992 21.1387 15.209 20.6465C15.7188 20.1543 15.9824 19.5215 15.9824 18.7656C15.9824 17.9746 15.7363 17.3418 15.2266 16.8672C14.7168 16.3926 14.0137 16.1641 13.0996 16.1641H5.98047V21.3848H13.0996ZM25.1934 26.5V1.29297H31.2402V26.5H25.1934ZM46.1465 27.0098L46.1641 27.1152C43.1934 27.1152 40.6797 26.377 38.623 24.9004C36.5664 23.4238 35.1426 21.6133 34.3516 19.4688L40.0469 17.7109C40.5566 18.959 41.3652 19.9609 42.4902 20.7344C43.6152 21.5078 44.9688 21.8945 46.5508 21.8945C47.7285 21.8945 48.6777 21.666 49.3984 21.1914C50.1191 20.7168 50.4883 20.1543 50.4883 19.5039C50.4883 18.4668 49.5918 17.6582 47.7812 17.0781L41.2949 15.0742C39.5371 14.5293 38.1309 13.668 37.0762 12.5078C36.0215 11.3477 35.5117 9.97656 35.5293 8.39453C35.5117 6.30273 36.3906 4.52734 38.166 3.06836C39.9414 1.60938 42.1738 0.871094 44.8633 0.871094C47.5176 0.871094 49.873 1.50391 51.9121 2.78711C53.9512 4.07031 55.3223 5.63477 56.0078 7.48047L50.5059 9.09766C49.9961 8.20117 49.2402 7.48047 48.2383 6.91797C47.2363 6.35547 46.1289 6.07422 44.916 6.07422C43.9141 6.07422 43.1055 6.26758 42.4902 6.6543C41.875 7.04102 41.5762 7.5332 41.5762 8.13086C41.5762 8.99219 42.1387 9.58984 43.2637 9.92383L49.6094 11.9453C51.8066 12.6309 53.5117 13.4922 54.707 14.5293C55.9023 15.5664 56.5 17.0605 56.5 19.0117C56.5 21.2969 55.5508 23.1953 53.6348 24.7246C51.7188 26.2539 49.2227 27.0098 46.1465 27.0098ZM78.6836 1.29297V6.70703H70.6504V26.5H64.6738V6.70703H56.6582V1.29297H78.6836ZM100.34 6.70703H87.209V11.084H98.5117V16.3047H87.209V21.1035H100.305V26.5H81.373V1.29297H100.34V6.70703ZM119.535 26.5L114.156 18.2207H109.832V26.5H103.926V1.29297H116.529C119.184 1.29297 121.346 2.1543 122.998 3.87695C124.65 5.59961 125.477 7.56836 125.477 9.80078C125.477 11.4531 125.02 12.9824 124.123 14.3711C123.227 15.7598 121.961 16.7969 120.326 17.4648L126.408 26.5H119.535ZM109.832 6.63672L109.814 12.9824H116.072C117.109 12.9824 117.971 12.666 118.639 12.0508C119.307 11.4355 119.641 10.6797 119.641 9.7832C119.641 8.92188 119.324 8.18359 118.674 7.56836C118.023 6.95312 117.25 6.63672 116.336 6.63672H109.832ZM144.883 26.5L139.504 18.2207H135.18V26.5H129.273V1.29297H141.877C144.531 1.29297 146.693 2.1543 148.346 3.87695C149.998 5.59961 150.824 7.56836 150.824 9.80078C150.824 11.4531 150.367 12.9824 149.471 14.3711C148.574 15.7598 147.309 16.7969 145.674 17.4648L151.756 26.5H144.883ZM135.18 6.63672L135.162 12.9824H141.42C142.457 12.9824 143.318 12.666 143.986 12.0508C144.654 11.4355 144.988 10.6797 144.988 9.7832C144.988 8.92188 144.672 8.18359 144.021 7.56836C143.371 6.95312 142.598 6.63672 141.684 6.63672H135.18ZM169.211 1.29297H175.908L166.521 17.4297V26.5H160.475V17.4297L151.035 1.29297H157.768L163.498 11.5938L169.211 1.29297Z" fill="white"/>
</svg>
