<svg width="146" height="30" viewBox="0 0 146 30" fill="none" xmlns="http://www.w3.org/2000/svg">
<path d="M13.4665 3.48857C13.8233 2.39052 15.3767 2.39051 15.7335 3.48857L17.6103 9.26481C17.7699 9.75588 18.2275 10.0884 18.7438 10.0884H24.8173C25.9719 10.0884 26.4519 11.5658 25.5179 12.2444L20.6043 15.8143C20.1866 16.1178 20.0118 16.6558 20.1713 17.1468L22.0482 22.9231C22.4049 24.0211 21.1482 24.9342 20.2141 24.2556L15.3005 20.6857C14.8828 20.3822 14.3172 20.3822 13.8995 20.6857L8.98589 24.2556C8.05183 24.9342 6.79506 24.0211 7.15184 22.9231L9.02866 17.1468C9.18821 16.6558 9.01342 16.1178 8.5957 15.8143L3.68213 12.2444C2.74807 11.5658 3.22811 10.0884 4.38267 10.0884H10.4562C10.9725 10.0884 11.4301 9.75588 11.5897 9.26481L13.4665 3.48857Z" fill="#E9B500"/>
<path d="M42.6667 3.48881C43.0235 2.39076 44.5769 2.39076 44.9337 3.48881L46.8105 9.26506C46.9701 9.75612 47.4277 10.0886 47.944 10.0886H54.0175C55.1721 10.0886 55.6521 11.566 54.7181 12.2446L49.8045 15.8146C49.3868 16.1181 49.212 16.656 49.3715 17.1471L51.2484 22.9233C51.6051 24.0214 50.3484 24.9345 49.4143 24.2558L44.5007 20.6859C44.083 20.3824 43.5174 20.3824 43.0997 20.6859L38.1861 24.2558C37.252 24.9345 35.9953 24.0214 36.352 22.9233L38.2289 17.1471C38.3884 16.656 38.2136 16.1181 37.7959 15.8146L32.8823 12.2446C31.9483 11.566 32.4283 10.0886 33.5829 10.0886H39.6564C40.1727 10.0886 40.6303 9.75612 40.7899 9.26506L42.6667 3.48881Z" fill="#E9B500"/>
<path d="M71.8669 3.48857C72.2237 2.39052 73.7771 2.39051 74.1339 3.48857L76.0107 9.26481C76.1703 9.75588 76.6279 10.0884 77.1442 10.0884H83.2177C84.3723 10.0884 84.8523 11.5658 83.9183 12.2444L79.0047 15.8143C78.587 16.1178 78.4122 16.6558 78.5717 17.1468L80.4486 22.9231C80.8053 24.0211 79.5486 24.9342 78.6145 24.2556L73.7009 20.6857C73.2832 20.3822 72.7176 20.3822 72.2998 20.6857L67.3863 24.2556C66.4522 24.9342 65.1955 24.0211 65.5522 22.9231L67.429 17.1468C67.5886 16.6558 67.4138 16.1178 66.9961 15.8143L62.0825 12.2444C61.1485 11.5658 61.6285 10.0884 62.7831 10.0884H68.8566C69.3729 10.0884 69.8305 9.75588 69.9901 9.26481L71.8669 3.48857Z" fill="#E9B500"/>
<path d="M101.066 3.48857C101.423 2.39052 102.976 2.39051 103.333 3.48857L105.21 9.26481C105.369 9.75588 105.827 10.0884 106.343 10.0884H112.417C113.571 10.0884 114.052 11.5658 113.117 12.2444L108.204 15.8143C107.786 16.1178 107.611 16.6558 107.771 17.1468L109.648 22.9231C110.005 24.0211 108.748 24.9342 107.814 24.2556L102.9 20.6857C102.482 20.3822 101.917 20.3822 101.499 20.6857L96.5855 24.2556C95.6514 24.9342 94.3947 24.0211 94.7514 22.9231L96.6283 17.1468C96.7878 16.6558 96.613 16.1178 96.1953 15.8143L91.2817 12.2444C90.3477 11.5658 90.8277 10.0884 91.9823 10.0884H98.0558C98.5721 10.0884 99.0297 9.75588 99.1893 9.26481L101.066 3.48857Z" fill="#E9B500"/>
<path d="M130.266 3.48881C130.623 2.39076 132.177 2.39076 132.533 3.48881L134.41 9.26506C134.57 9.75612 135.027 10.0886 135.544 10.0886H141.617C142.772 10.0886 143.252 11.566 142.318 12.2446L137.404 15.8146C136.986 16.1181 136.812 16.656 136.971 17.1471L138.848 22.9233C139.205 24.0214 137.948 24.9345 137.014 24.2558L132.1 20.6859C131.683 20.3824 131.117 20.3824 130.699 20.6859L125.786 24.2558C124.852 24.9345 123.595 24.0214 123.952 22.9233L125.828 17.1471C125.988 16.656 125.813 16.1181 125.396 15.8146L120.482 12.2446C119.548 11.566 120.028 10.0886 121.182 10.0886H127.256C127.772 10.0886 128.23 9.75612 128.389 9.26506L130.266 3.48881Z" fill="#E9B500"/>
</svg>
